<?xml version="1.0" encoding="utf-8"?>
<!-- Generator: Adobe Illustrator 26.1.0, SVG Export Plug-In . SVG Version: 6.00 Build 0)  -->
<svg version="1.1" id="Layer_1" xmlns="http://www.w3.org/2000/svg" xmlns:xlink="http://www.w3.org/1999/xlink" x="0px" y="0px"
	 viewBox="0 0 90.9 202" style="enable-background:new 0 0 90.9 202;" xml:space="preserve">
<style type="text/css">
	.st0{fill:#1E1F1C;}
	.st1{fill:#FFFFFF;}
	.st2{fill:#2B2B28;}
	.st3{fill:#333332;}
	.st4{fill:#E30613;}
</style>
<rect x="34.9" y="24.7" transform="matrix(0.9604 0.2788 -0.2788 0.9604 32.5494 -7.1093)" class="st0" width="12.8" height="172.4"/>
<path class="st1" d="M58,29.9c2-6.9,4-13.8,6-20.6c0.7,0.8,2.7,2.9,6.2,3.8c3,0.7,5.4,0.1,6.4-0.2c-2,6.9-4,13.8-6,20.6
	c-0.3,0.2-3.8,2.5-7.8,0.9C59.5,33.3,58.2,30.4,58,29.9z"/>
<ellipse transform="matrix(0.2788 -0.9604 0.9604 0.2788 39.7604 75.5482)" class="st1" cx="70.2" cy="11.3" rx="1.7" ry="6.4"/>
</svg>
