<?xml version="1.0" encoding="utf-8"?>
<!-- Generator: Adobe Illustrator 26.1.0, SVG Export Plug-In . SVG Version: 6.00 Build 0)  -->
<svg version="1.1" id="Layer_1" xmlns="http://www.w3.org/2000/svg" xmlns:xlink="http://www.w3.org/1999/xlink" x="0px" y="0px"
	 viewBox="0 0 309.2 220.5" style="enable-background:new 0 0 309.2 220.5;" xml:space="preserve">
<style type="text/css">
	.st0{fill:#1E1F1C;}
	.st1{fill:#FFFFFF;}
	.st2{fill:#2B2B28;}
	.st3{fill:#333332;}
	.st4{fill:#E30613;}
</style>
<g>
	<path class="st0" d="M255.3,74.8c4.4,0.4,5.8,31.7,4.2,93.7c0.3,1.8,0.5,4.6-0.3,7.9c-8.4,35.8-113.5,34.2-125.9,34
		c0,0-49.2-0.8-70.1-22.9c-2.3-2.4-3.1-5.2-3.1-5.2c-0.4-1.2-0.6-2.4-0.6-3.8c0.3-29.1-0.3-65.4,0-94.5"/>
	<ellipse class="st2" cx="153.7" cy="52.6" rx="149.5" ry="46.8"/>
	<ellipse class="st3" cx="153.7" cy="50.9" rx="149.5" ry="46.8"/>
	<g>
		
			<image style="overflow:visible;" width="326" height="643" xlink:href="82B7EBEE20F55C13.png"  transform="matrix(0.24 0 0 0.24 71.3009 72.733)">
		</image>
	</g>
	<g>
		
			<image style="overflow:visible;" width="611" height="420" xlink:href="82B7EBEE20F55C11.png"  transform="matrix(0.24 0 0 0.24 10.1009 16.2778)">
		</image>
	</g>
	<ellipse class="st0" cx="157.9" cy="46.3" rx="83.8" ry="20.9"/>
</g>
<path class="st4" d="M260.1,104.2c-16.7,5.3-31.4,8.4-43.2,10.3c-20.3,3.2-35.8,3.4-58.6,3.8c-20.4,0.3-30.7,0.5-43.8-1
	c-23.3-2.7-42.1-8.3-55.1-13c0-5,0-10,0-14.9c25.9,5.7,60.1,10.8,100.3,10.1c40.4-0.7,74.6-7,100.4-13.7
	C260.1,91.8,260.1,98,260.1,104.2z"/>
</svg>
